<?xml version="1.0" encoding="utf-8"?>
<!-- Generator: Adobe Illustrator 16.0.0, SVG Export Plug-In . SVG Version: 6.00 Build 0)  -->
<!DOCTYPE svg PUBLIC "-//W3C//DTD SVG 1.1//EN" "http://www.w3.org/Graphics/SVG/1.1/DTD/svg11.dtd">
<svg version="1.1" id="Layer_1" xmlns="http://www.w3.org/2000/svg" xmlns:xlink="http://www.w3.org/1999/xlink" x="0px" y="0px"
	 width="1000px" height="1000px" viewBox="0 0 1000 1000" enable-background="new 0 0 1000 1000" xml:space="preserve">
<g>
	<path fill-rule="evenodd" clip-rule="evenodd" fill="#5B5A5A" d="M106.429,129.639c-1.404,120.923,44.186,222.737,127.568,308.238
		c43.426,44.528,97.617,74.974,149.836,107.744c0.766,0.48,1.804,0.585,2.476,1.149c37.493,31.599,80.757,38.824,128.871,36.479
		c52.949-2.583,106.284-3.335,159.309,1.028c73.794,6.075,111.158,81.377,72.72,145.227c-8.583,14.257-20.507,24.701-35.715,30.779
		c-9.803,3.918-9.185,7.238-2.566,14.018c43.145,44.189,75.092,95.212,93.664,154.408c7.298,23.255,9.485,47.408,13.886,71.174
		c-220.113,0-440.228,0-660.342,0c-4.4-6.554-12.048-5.54-18.246-7.268C70.535,973.85,23.846,934.276,7.082,864.134
		c-0.674-2.819-1.115-5.498-5.027-4.573c0-100.887,0-201.771,0-302.657C32.04,588.55,51.865,626.334,67.998,666.32
		c14.03,34.777,28.083,69.361,53.784,97.896c37.221,41.328,99.619,52.524,144.415,23.997c27.087-17.25,34.508-52.36,19.597-85.676
		c-11.176-24.973-29.171-45.001-45.897-66.152C174.016,553.08,110.463,468.062,80.917,363.774
		c-24.432-86.24-19.336-171.161,17.234-253.596c1.467-3.31,2.914-6.629,4.371-9.941C110.966,109.09,104.622,119.904,106.429,129.639
		z"/>
	<path fill-rule="evenodd" clip-rule="evenodd" fill="#5B5A5A" d="M1000.822,141.438C962.975,64.752,897.816,25.155,817.342,6.419
		c-4.369-1.019-9.092-0.879-11.871-5.304c62.364,0,124.733,0.129,187.098-0.18c6.881-0.035,8.496,1.551,8.437,8.438
		C1000.646,53.389,1000.822,97.415,1000.822,141.438z"/>
	<path fill-rule="evenodd" clip-rule="evenodd" fill="#5B5A5A" d="M1000.822,512.881c-28.656-28.555-63.739-46.71-102.404-61.935
		c15.966-10.903,31.499-19.483,45.326-30.591c19.74-15.855,37.351-33.482,50.334-55.437c1.51-2.55,2.706-6.078,6.744-6.118
		C1000.822,410.161,1000.822,461.52,1000.822,512.881z"/>
	<path fill-rule="evenodd" clip-rule="evenodd" fill="#5B5A5A" d="M846.742,999.883c16.863-7.171,33.891-13.991,50.558-21.59
		c35.196-16.046,66.508-37.877,94.419-64.64c2.488-2.383,3.811-7.588,9.104-4.567c0,27.514-0.269,55.034,0.188,82.54
		c0.112,6.895-1.559,8.488-8.442,8.439C943.962,999.722,895.35,999.883,846.742,999.883z"/>
	<path fill-rule="evenodd" clip-rule="evenodd" fill="#5B5A5A" d="M2.055,479.863c11.028,11.68,18.892,25.582,28.646,39.898
		c-11.799-1.287-17.606-13.075-28.646-12.385C2.055,498.207,2.055,489.034,2.055,479.863z"/>
	<path fill-rule="evenodd" clip-rule="evenodd" fill="#5B5A5A" d="M554.274,237.993c29.758,0,59.543-0.82,89.261,0.271
		c22.15,0.814,43.711,6.167,61.208,20.95c24.999,21.122,23.462,49.324,17.452,77.244c-5.713,26.547-24.39,41.911-49.905,49.48
		c-17.304,5.132-35.026,6.261-52.959,6.215c-51.734-0.132-103.475-0.328-155.203,0.202c-10.155,0.102-13.415-2.386-13.283-12.852
		c0.54-43.029,0.492-86.074-0.02-129.102c-0.117-9.931,2.115-13.518,12.807-13.25c30.199,0.76,60.425,0.266,90.643,0.266
		C554.274,237.611,554.274,237.802,554.274,237.993z"/>
	<path fill-rule="evenodd" clip-rule="evenodd" fill="#5B5A5A" d="M106.429,129.639c-1.807-9.735,4.537-20.549-3.907-29.403
		c2.943-4.262,3.285-10.208,9.54-14.029C112.169,101.636,108.304,115.53,106.429,129.639z"/>
</g>
</svg>
