<?xml version="1.0" encoding="utf-8"?>
<!-- Generator: Adobe Illustrator 16.0.0, SVG Export Plug-In . SVG Version: 6.00 Build 0)  -->
<!DOCTYPE svg PUBLIC "-//W3C//DTD SVG 1.1//EN" "http://www.w3.org/Graphics/SVG/1.1/DTD/svg11.dtd">
<svg version="1.1" id="Layer_1" xmlns="http://www.w3.org/2000/svg" xmlns:xlink="http://www.w3.org/1999/xlink" x="0px" y="0px"
	 width="803.696px" height="335.731px" viewBox="0 0 803.696 335.731" enable-background="new 0 0 803.696 335.731"
	 xml:space="preserve">
<g>
	<path fill-rule="evenodd" clip-rule="evenodd" fill="#707070" d="M154.249,191.08c0,9.633,0.498,19.299-0.165,28.885
		c-0.492,7.102,3.399,8.439,8.813,9.052c14.56,1.645,29.125,1.699,43.787,1.555c20.44-0.204,39.198-5.643,57.015-14.861
		c30.003-15.528,39.218-43.538,24.175-73.938c-15.511-31.343-42.15-51.729-71.291-68.791
		C163.064,41.644,105.447,24.55,42.894,26.654c-6.523,0.219-13.062,1.084-19.503,2.183c-3.779,0.644-9.635,0.972-4.323,7.441
		c1.586,1.932,0.894,3.877-1.635,4.004c-4.7,0.237-8.912,4.709-14.098,1.202c-3.71-2.508-3.946-6.185-2.542-9.151
		C5.02,23.4,11.129,15.46,21.542,14.154c9.428-1.182,18.353-4.295,27.938-5.025c98.954-7.54,180.32,29.173,248.837,98.305
		c7.836,7.906,14.046,17.328,19.229,27.289c16.37,31.467,10.853,63.125-15.908,86.582c-29.125,25.528-64.312,33.229-101.905,32.719
		c-13.078-0.179-26.15-1.092-38.845-4.678c-3.977-1.123-6.256-0.574-7.518,4.104c-2.027,7.518-7.812,9.781-15.234,9.117
		c-7.983-0.717-12.123-5.999-12.471-12.853c-0.507-9.989-5.907-14.063-14.164-18.212c-22.839-11.475-43.803-25.992-58.357-47.512
		c-9.041-13.368-9.358-17.718,4.705-28.787c14.265-11.232,31.207-17.589,49.49-19.089c12.602-1.032,17.528-5.342,18.047-17.804
		c0.466-11.207,2.017-22.243,5.306-32.951c0.969-3.154,2.397-7.104,6.338-7.511c4.567-0.472,6.673,3.36,8.204,6.895
		c4.663,10.769,6.068,22.238,6.066,33.816c-0.001,7.483,2.065,10.552,10.499,10.598c19.625,0.108,39.244,1.62,58.064,8.103
		c8.811,3.037,16.887,7.203,23.486,14.062c8.462,8.799,6.818,18.806,2.371,28.046c-4.099,8.514-12.414,10.561-21.727,9.336
		c-7.307-0.963-7.511-3.409-3.237-8.66c8.014-9.85,7.576-11.354-4.863-15.761c-18.33-6.492-37.292-8.979-56.733-8.51
		c-4.829,0.117-6.697,1.017-6.375,6.415c0.573,9.601,0.161,19.258,0.161,28.893C153.381,191.08,153.814,191.08,154.249,191.08z
		 M123.805,218.686c0-19.426,0.036-37.769-0.039-56.114c-0.011-2.849,0.774-6.555-4.339-5.961
		c-17.836,2.072-36.034,1.946-53.154,8.41c-14.132,5.337-15.803,11.64-3.71,21.032C80.562,200.033,100.319,211.392,123.805,218.686z
		"/>
	<path fill-rule="evenodd" clip-rule="evenodd" fill="#707070" d="M716.662,193.663c14.441-16.841,27.703-33.412,44.618-46.28
		c7.091-5.394,14.226-13.002,24.606-8.68c11.971,4.982,16.518,15.438,17.81,27.52c3.665,34.341-26.274,69.328-64.418,74.307
		c-7.802,1.019-10.956,3.33-12.638,11.015c-5.732,26.193-17.141,50.879-20.878,77.655c-0.944,6.763-5.046,8.195-10.606,4.666
		c-9.391-5.961-14.729-14.317-14.471-25.81c0.602-26.873,9.165-52.035,16.771-77.369c2.021-6.731,3.218-12.598,0.457-19.735
		c-4.628-11.951-2.683-24.347,1.73-36.112c6.015-16.029,15.392-30.039,27.305-42.304c1.902-1.962,3.834-6.178,7.224-3.357
		c2.004,1.667,3.437,5.253,2.397,8.385c-1.51,4.537-3.227,9.052-5.342,13.334c-4.587,9.277-9.704,18.298-14.153,27.639
		C715.033,182.824,712.441,187.508,716.662,193.663z M744.21,212.928c17.386-2.042,30.748-10.6,40.352-24.925
		c3.67-5.475,5.306-11.817,4.85-18.556c-0.268-3.947-0.932-7.863-4.895-9.68c-4.582-2.102-7.147,1.775-9.542,4.431
		C762.129,178.442,752.777,195.012,744.21,212.928z"/>
	<path fill-rule="evenodd" clip-rule="evenodd" fill="#707070" d="M399.395,160.364c13.143,6.837,25.557,4.84,37.324,6.395
		c9.906,1.311,19.878,1.882,29.535,4.756c11.964,3.559,21.03,10.457,22.436,23.389c1.423,13.069-2.653,24.396-14.443,32.156
		c-20.551,13.525-61.903,11.642-80.917-4.092c-6.545-5.414-11.286-11.726-9.674-21.053c1.878-10.866,9.549-15.182,19.186-16.687
		c16.34-2.552,32.129,0.748,47.578,5.836c2.768,0.913,6.107,2.391,6.162,6.097c0.062,4.288-3.747,5.52-6.793,6.962
		c-9.074,4.293-17.868,2.305-26.82-1.02c-6.752-2.506-13.21-6.431-20.901-5.724c-4.779,0.44-8.355,2.743-8.943,7.478
		c-0.58,4.666,3.213,7.079,7.108,7.599c22.623,3.019,44.567,0.163,64.985-10.168c7.927-4.013,7.179-9.271-1.41-12.816
		c-13.269-5.478-27.286-7.897-41.64-8.071c-9.625-0.117-19.23,0.016-28.748-2.002c-7.434-1.575-14.296-3.658-16.723-11.989
		c-2.558-8.774,0.861-15.955,6.792-21.961c9.344-9.463,22.044-12.1,34.264-14.354c19.36-3.572,38.991-4.26,58.625-0.979
		c5.669,0.949,11.749,2.919,12.145,8.347c0.396,5.438-5.314,7.891-10.936,9.172c-19.293,4.395-39.087,3.333-58.544,5.858
		C412.61,154.328,406.382,155.146,399.395,160.364z"/>
	<path fill-rule="evenodd" clip-rule="evenodd" fill="#707070" d="M520.023,181.38c-1.582,14.488,1.006,29.307-3.495,43.569
		c-1.505,4.766-2.201,10.125-9.138,9.888c-6.711-0.229-9.526-4.872-10.634-10.333c-3.12-15.393-0.602-30.734,1.851-45.91
		c1.77-10.961,3.988-21.985,8.797-32.143c5.063-10.689,9.671-11.63,18.042-3.267c13.157,13.142,22.467,29.243,33.096,44.325
		c2.174,3.087,4.564,6.02,7.531,9.911c4.829-5.715,3.849-11.334,2.497-16.614c-4.474-17.469-9.312-34.843-13.95-52.269
		c-1.062-3.981-3.209-9.432,0.716-11.479c3.486-1.819,8.555,0.181,12.245,3.502c18.926,17.042,31.223,65.306,22.632,89.226
		c-1.713,4.764-4.1,9.088-7.452,12.848c-8.259,9.26-15.86,9.653-24.534,0.827c-11.967-12.181-19.718-27.436-29.569-41.16
		c-1.509-2.102-2.544-10.773-8.227-2.858c-0.672,0.213-1.341,0.428-2.009,0.642C518.955,180.517,519.488,180.948,520.023,181.38z"/>
	<path fill-rule="evenodd" clip-rule="evenodd" fill="#707070" d="M621.172,242.68c-12.807-0.038-24.249-15.925-21.366-33.527
		c1.615-9.86,8.596-18.605,5.023-29.723c-1.155-3.592,4.252-5.61,7.576-7.592c10.732-6.396,10.59-15.663-0.181-21.913
		c-3.638-2.108-8.315-3.935-7.705-8.946c0.7-5.772,6.236-2.953,9.315-4.343c14.147-6.374,28.555-4.806,43.26-4.489
		c6.991,0.151,13.779-2.468,21.276-0.188c3.801,1.154,6.964,2.625,9.798,4.926c2.892,2.348,6.48,5.043,5.42,9.325
		c-1.175,4.738-5.674,6.103-9.931,6.67c-11.434,1.523-23.016,0.653-34.506,2.483c-7.726,1.231-8.482,6.076-7.646,11.499
		c0.513,3.333,1.2,8.412,8.105,5.538c4.262-1.773,9.862-0.21,14.854-0.37c5.387-0.172,9.201,1.694,9.53,7.499
		c0.344,6.059-2.695,9.267-8.966,9.296c-8.467,0.038-16.96-0.149-25.393,0.468c-7.705,0.562-16.065,13.659-11.795,19.67
		c3.38,4.759,10.357,6.426,16.65,2.721c6.838-4.031,14.617-3.991,22.087-4.895c5.952-0.721,10.36,2.759,12.557,8.146
		c2.198,5.398-2.845,7.579-5.94,9.798C658.569,235.228,642.456,242.011,621.172,242.68z"/>
	<path fill-rule="evenodd" clip-rule="evenodd" fill="#707070" d="M353.988,112.712c-8.099,0.228-16.007-3.245-23.972,2.996
		c-5.081,3.979-9.48-1.718-9.878-7.131c-0.442-6.013-2.777-10.93-5.377-16.077c-4.22-8.358-4.84-17.383-0.19-25.501
		c11.251-19.654,26.98-30.355,50.752-35.17c21.023-4.259,33.59,7.974,49.731,13.196c8.148,2.637,9.459,10.555,8.266,18.285
		c-1.01,6.544-4.026,12.421-8.328,17.443C398.9,99.538,379.43,111.923,353.988,112.712z M357.427,96.325
		c15.391-4.379,32.127-8.22,44.694-20.937c4.253-4.307,8.288-9.777,3.73-16.336c-4.885-7.03-11.517-4.944-17.5-2.088
		c-13.995,6.679-25.62,16.685-36.451,27.592c-2.168,2.185-6.4,3.622-4.65,8.182C349.01,97.319,353.193,94.689,357.427,96.325z
		 M329.363,76.195c8.75-8.62,18.54-16.165,29.574-23.99C340.546,55.1,331.527,62.165,329.363,76.195z"/>
	<path fill-rule="evenodd" clip-rule="evenodd" fill="#707070" d="M365.831,189.668c0,12.674,0.426,24.219-0.184,35.708
		c-0.294,5.519-1.161,11.592-9.541,11.856c-7.848,0.248-12.646-2.827-14.227-10.3c-1.103-5.215-1.786-10.588-1.978-15.916
		c-0.764-21.125-0.538-42.231,2.783-63.178c0.537-3.385,1.487-6.733,2.551-10.001c1.088-3.342,2.773-6.969,6.768-6.808
		c4.147,0.167,6.515,3.247,7.84,7.301c3.017,9.23,3.986,18.723,4.471,28.335C364.719,174.724,365.367,182.768,365.831,189.668z"/>
	<path fill-rule="evenodd" clip-rule="evenodd" fill="#707070" d="M520.023,181.38c-0.535-0.432-1.068-0.863-1.602-1.295
		c0.668-0.214,1.337-0.429,2.009-0.642C520.798,180.193,520.663,180.84,520.023,181.38z"/>
</g>
</svg>
