<?xml version="1.0" encoding="utf-8"?>
<!-- Generator: Adobe Illustrator 16.0.0, SVG Export Plug-In . SVG Version: 6.00 Build 0)  -->
<!DOCTYPE svg PUBLIC "-//W3C//DTD SVG 1.1//EN" "http://www.w3.org/Graphics/SVG/1.1/DTD/svg11.dtd">
<svg version="1.1" id="Layer_1" xmlns="http://www.w3.org/2000/svg" xmlns:xlink="http://www.w3.org/1999/xlink" x="0px" y="0px"
	 width="1000px" height="500.207px" viewBox="0 112.07 1000 500.207" enable-background="new 0 112.07 1000 500.207"
	 xml:space="preserve">
<g>
	<path fill="#727272" d="M417.938,610.373c-123.787,0-247.57,0-371.356,0c-18.271-8.021-31.917-20.665-39.437-39.437
		c0-138.026,0-276.052,0-414.078c6.695-21.79,20.396-36.572,42.723-42.723c184.035,0,368.07,0,552.105,0
		c2.686,4.049,5.121,8.298,8.1,12.122c50.059,64.347,99.277,129.387,150.877,192.479c14.846,18.147,15.713,32.482,3.035,51.23
		c-23.151-16.58-49.475-20.907-77.588-18.863c-15.251,1.11-30.646,0.207-45.974,0.197c-23.075-0.018-33.617-12.866-24.308-34.518
		c6.095-14.177,5.148-27.687,4.708-41.418c-1.084-33.487-10.844-63.61-39.452-84.501c-26.936-19.665-57.556-25.932-90.127-23.046
		c-55.184,4.883-85.21,33.119-85.811,84.068c-0.083,7.025-3.874,10.549-8.88,14.367c-16.3,12.439-32.267,25.318-52.418,41.232
		c23.576,0,41.917-0.344,60.239,0.117c12.295,0.31,16.338,7.001,11.505,18.213c-4.108,9.517-8.832,18.768-13.242,28.153
		c-7.073,15.062-5.395,17.582,11.307,18.312c4.875,0.213,12.237-3.03,13.261,5.271c1.56,12.685,7.981,27.226-10.655,34.086
		c-3.896,1.433-7.042,5.13-10.292,8.041c-34.818,31.185-47.607,72.014-51.589,116.912c-2.876,32.401-3.209,32.411,28.643,32.646
		c7.083,0.054,14.134-1.021,17.998,7.513C406.452,588.142,412.354,599.186,417.938,610.373z M120.117,535.329
		c21.698,0.427,40.126-16.788,40.877-38.188c0.779-22.147-17.433-41.053-39.709-41.217c-22.619-0.172-39.674,16.112-40.2,38.38
		C80.523,517.967,96.602,534.867,120.117,535.329z"/>
	<path fill="#727272" d="M825.44,610.373c0.187-12.562,0.854-25.146,0.386-37.681c-0.331-8.659,2.754-11.402,11.297-11.227
		c22.953,0.469,45.925,0.036,68.885,0.192c18.142,0.126,31.65-7.24,39.497-23.832c6.691-14.153,23.473-29.358,18.479-41.843
		c-7.294-18.223-20.684-35.527-33.861-51.157c-7.304-8.66-20-12.869-30.463-18.736c-7.259-4.073-15.244-7.141-10.969-18.223
		c1.245-3.241-0.296-6.852-3.152-8.699c-13.446-8.692-16.068-25.923-28.951-35.516c-6.894-5.133-7.137-16.105-13.453-23.183
		c-59.282-66.36-91.741-149.561-139.477-223.198c-0.456-0.709,0.103-2.076,0.189-3.134c83.256,0,166.506,0,249.762,0
		c19.593,8.288,33.627,21.706,39.439,42.723c0,138.026,0,276.053,0,414.079c-7.523,18.768-21.159,31.422-39.439,39.436
		C910.886,610.373,868.163,610.373,825.44,610.373z"/>
	<path fill="#FDFDFD" d="M49.868,114.136c-22.327,6.15-36.028,20.933-42.723,42.723c0-14.24-5.559-34.038,1.563-41.16
		C15.83,108.577,35.625,114.136,49.868,114.136z"/>
	<path fill="#FDFDFD" d="M7.146,570.937c7.52,18.771,21.166,31.416,39.437,39.437c-13.146,0-31.423,5.128-37.995-1.444
		C2.014,602.356,7.146,584.082,7.146,570.937z"/>
	<path fill="#FDFDFD" d="M953.608,610.373c18.28-8.014,31.916-20.668,39.439-39.437c0,13.146,5.128,31.42-1.444,37.992
		C985.03,615.501,966.754,610.373,953.608,610.373z"/>
	<path fill="#FDFDFD" d="M993.048,156.858c-5.812-21.018-19.847-34.437-39.439-42.723c13.146,0,31.422-5.132,37.995,1.441
		c6.572,6.573,1.444,24.85,1.444,37.995C993.048,154.666,993.048,155.764,993.048,156.858z"/>
</g>
</svg>
