<svg xmlns="http://www.w3.org/2000/svg" xmlns:xlink="http://www.w3.org/1999/xlink" version="1.1" id="Layer_1" x="0" y="0" width="947.86" height="414.8" viewBox="0 0 947.86 414.8" enable-background="new 0 0 947.861 414.804" xml:space="preserve">

	<style>
		*{
			fill:#fff;
		}
	</style>
  <path d="M475.21 319.44"/>
  <path d="M441.86 194.21h55.61v3.42c-7.77 0-15.78 0.51-15.78 6.72 0 1.33 0.26 4.5 1.99 8.72l21.44 54.82 22.2-53.36c0.86-4.46 1.32-5.53 0.63-8.55 -1.5-6.59-8.62-8.37-16.24-8.35v-3.42h41.93v3.42c-9.85 0.47-15.1 6.36-19.52 13.43l-35.55 81.38h-3.77l-32.37-81.15c-4.11-8.35-4.51-12.73-20.56-13.65V194.21z"/>
  <path d="M620.01 290v-3.37c10.8-0.66 13.68-1.5 13.68-13.04v-56.1c0-8.65-5.43-9.09-13.56-11.18 0 0 24.48-12.92 33.15-17.1v28.57c3.34-9.37 11.28-27.26 23.44-27.4 6.59-0.08 11.44 5.06 11.44 11.93 0 4.32-1.49 11.53-10.31 11.53 -6.8 0-6.37-5.61-12.14-5.61 -4.87 0-11.97 15.19-11.97 21.73v43.64c0 11.06 3.41 12.21 16.71 13.04v3.37H620.01z"/>
  <path d="M820.59 173.73v20.48h32.82l-5.32 9.83H820.59v59.8c0 11.09 4.68 17.94 16.87 17.94 5.77 0 12.15-5.12 16.39-8.4l2.26 2.15c-1.48 1.73-3.48 4.14-4.92 5.38 -7.07 6.07-15.74 11.53-25.06 11.53 -15.97 0-23.27-12.03-24.19-26.38v-62.02h-14.99L820.59 173.73z"/>
  <path d="M835.74 194.21h47.7v3.42c-14.06-0.49-17.68 1.72-14.2 9.31 1.34 2.93 29 64.09 29 64.09l22.31-56.47c4.23-11.64 4.12-16.94-16.03-16.92v-3.42h43.36v3.42c-16.38-0.44-19.3 5.87-22.63 15.63 0 0-37.22 94.13-39.48 100.4 -2.86 7.92-9.3 13.43-21.01 12.92 -6.54-0.29-12.44-6.73-12.44-11.39 0-5.32 3.9-10.3 9.55-10.17 4.88 0.12 6.29 2 8.09 4.38 1.59 2.09 1.52 3.33 1.71 5.86 0.36 4.75 6.5 6.97 10.13-2.23 4.87-12.36 7.22-18.15 7.22-18.15l-41.23-86.32C845.59 204.12 835.74 194.21 835.74 194.21z"/>
  <path d="M541.55 162.18v3.4h-72.68v-3.4c22.51-1.06 23.23-12.29 23.21-14.94V14.71h-20.4c-16.57 1.32-18.59 3.3-25.51 9.05 -8.44 7.01-14.22 15.76-19.45 28.06l-3.16-0.45 7.98-42.24c33.28 1.15 38.47 1.03 46.33 0.92h58.96c2.44 0 27.98 0.13 42.95-1.15L545.65 14.36l-27.81-0.04v132.93C518.02 149.94 519.18 161 541.55 162.18z"/>
  <path d="M581.46 8.9v79.44c4.55-8.87 16.06-22.88 29.81-22.88 10.2 0 19.84 4.13 24.94 13 4.66 7.76 5.44 15.6 5.44 24.25v44.57c0 11.53 5.4 14.37 15.16 15.03v3.27h-47.17v-3.27c9.09-0.67 13.24-3.29 13.24-15.03v-44.57c0-7.1 0.19-10.36-2.89-16.22 -2.7-5.14-9.35-8.18-17.54-8 -12.87 0.27-20.98 13.18-20.98 18.43 0 5.05 0 50.36 0 50.36 0 11.53 2.47 14.37 11.78 15.03v3.27H545.62v-3.27c9.98-0.67 16.64-3.5 16.64-15.03V24.42c0-6.87-9.48-10.72-35.19-10.06L581.46 8.9z"/>
  <path d="M665.41 100.56c-0.64 3.43-0.96 7.65-0.6 11.85 1.9 21.82 15.03 38.63 36.21 39.3 13.79 0.44 27.19-8.6 32.51-21.9l2.67 0.48c-6.32 21.68-17.54 37.34-42.64 36.9 -28.31-0.49-45.25-20.56-46.19-50.33 -0.93-29.4 18.13-51.12 45.56-51.12 21.07 0 38.1 11.88 43 34.84H665.41zM711.32 96.23c-0.98-14.27-7.13-27.59-20.52-27.59 -13.84 0-20.65 13.83-24.53 28.07L711.32 96.23z"/>
  <path d="M103.21 383.22v-3.16c11.53-0.66 14.36-6.21 14.36-19.55l0.02-64.8h-14.73l1.82-7.9h12.91c0 0 0.15-15.73 0.62-24.55 0.49-9.24 4.76-38.7 35.08-39.13 8.42-0.12 16.04 6.13 16.03 12.31 -0.01 6.11-3.03 8.37-8.26 8.33 -7.85-0.06-11.66-9.6-12.17-13.27 -0.34-2.44-1.26-3.45-2.67-3.33 -9.31 0.81-8.48 19.79-8.5 26.05l0.01 33.6 18.82-0.01 -1.77 7.96 -17.07-0.04 0.07 64.8c-0.04 11.55 1.52 18.88 15.49 19.55v3.17H103.21z"/>
  <path d="M683.21 259.77l2.95-0.15c4.19 13.34 12.63 29.05 30.32 28.84 13.5-0.16 19.31-9.67 18.99-16.89 -0.6-13.78-15.69-18.09-26.17-23.98 -13.04-7.24-24.76-14.55-24.76-30.39 0-16.96 16.38-26.19 31.98-26.19 10.48 0 20.72 2.36 30.5 5.75l1.26 23.97 -3.88 0.16c-2.8-13.57-13.21-25.59-28.81-25.59 -9.78 0-15.85 5.58-15.85 14.85 0 19.45 53.44 18.72 53.44 51.74 0 20.58-19.65 30.53-38.75 30.53 -10.47 0-20.8-2.14-30.27-7.34L683.21 259.77z"/>
  <path d="M748.73 206.04c0 0 25.03-12.09 35.01-16.65v84.19c0.52 11.53 4.14 12.32 15.13 12.99v3.43h-48.98v-3.37c10.84-0.74 14.44-1.61 15.07-13.04v-54.9c0-5.86-0.21-8.45-5.56-9.96L748.73 206.04z"/>
  <path d="M521.22 312.39c32.4 0.21 53.49 23.14 53.53 51.79 0.04 28.69-19.93 50.69-52.58 50.63 -33.14-0.05-52.1-23.58-52.3-52.22C469.68 335.28 490.55 312.19 521.22 312.39zM522.38 410.52c22.59 0.16 30.27-23.25 30.16-41.07 -0.13-19.17-3.2-52.58-30.54-52.77 -23.3-0.16-29.99 30.02-29.88 46.94C492.23 380.99 499.08 410.36 522.38 410.52z"/>
  <path d="M567.19 412.37v-3.37c9.98-0.66 14.56-1.03 14.54-13.04v-54.99c-0.09-10.69-6.04-10.49-13.8-12.71 0 0 23.89-11.99 33.42-16.64v23.16c8.3-10.26 19.02-23.15 32.99-23.15 15.97 0 29.54 17.68 29.54 35.57v48.77c0.02 11.49 4.75 12.06 14.16 13.14v3.27h-47.05v-3.37c9.98-0.66 12.87-2.23 12.86-13.24v-42.48c0.17-13.96-5.71-28.66-20.18-28.74 -9.7-0.05-21.37 13.25-21.68 23.77v47.67c-0.02 11.38 4.77 12.37 14.31 13.04v3.37H567.19z"/>
  <circle cx="773.68" cy="153.67" r="12.59"/>
  <path d="M553.7 226.55c-0.64 3.43-0.96 7.66-0.59 11.86 1.9 21.82 15.02 38.62 36.21 39.29 13.8 0.44 27.19-8.6 32.51-21.9l2.67 0.48c-6.32 21.68-17.54 37.33-42.64 36.9 -28.31-0.5-45.25-20.56-46.19-50.33 -0.93-29.4 18.13-51.12 45.56-51.12 21.07 0 38.1 11.88 43 34.84H553.7zM599.61 222.23c-0.98-14.27-7.13-27.59-20.52-27.59 -13.84 0-20.65 13.83-24.53 28.07L599.61 222.23z"/>
  <circle cx="430.14" cy="153.67" r="12.59"/>
  <path d="M57.72 282.41c32.4 0.21 53.49 23.14 53.53 51.79 0.04 28.7-19.93 50.69-52.58 50.63 -33.15-0.06-52.1-23.58-52.3-52.23C6.19 305.31 27.05 282.21 57.72 282.41zM58.88 380.55c22.59 0.15 30.27-23.25 30.16-41.07 -0.13-19.18-3.2-52.58-30.54-52.77 -23.3-0.16-29.99 30.02-29.88 46.94C28.74 351.02 35.58 380.39 58.88 380.55z"/>
  <path d="M237.37 285.02"/>
  <path d="M405.19 206.04c0 0 25.03-12.09 35.01-16.65v84.19c0.52 11.53 4.14 12.32 15.14 12.99v3.43h-44.78v-3.95c5.41-0.29 10.24-1.03 10.87-12.46v-54.9c0-5.86-0.21-8.45-5.56-9.96L405.19 206.04z"/>
  <path d="M304.81 290v-3.37c9.98-0.66 14.56-1.03 14.54-13.04v-54.99c-0.09-10.69-6.05-10.49-13.8-12.71 0 0 23.88-11.99 33.42-16.64v23.15c8.31-10.26 19.02-23.15 32.99-23.15 15.96 0 29.54 17.68 29.54 35.57v48.77c0.03 11.49 5.48 12.38 11.64 12.46v3.95h-44.53v-3.37c9.98-0.66 12.87-2.23 12.86-13.24v-42.48c0.17-13.96-5.71-28.66-20.18-28.74 -9.7-0.06-21.37 13.25-21.68 23.76v47.67c-0.02 11.38 4.77 12.37 14.31 13.04v3.37H304.81z"/>
  <path d="M316.26 403.96c1.33 0.13 3.11 1.13 3.1-8.42V293.52c10.94-0.05 9.26-0.05 20.19-0.03v71.39l29.74-28.69c2.79-3.18 6.38-6.39 5.69-10.28 -0.9-4.98-11.8-4.64-15.13-4.64v-3.43h49.67v3.43c-22.67 0.68-37.96 19.82-46.48 26.89l31.88 44.09c6.73 9.24 11.55 15.79 21.76 15.97l0.05 4.16h-51.06v-3.37c3.33 0 11.1 0.42 11.1-5.87 0-2.98-2.68-6.19-5.31-9.44l-23.19-31.63 -8.71 8.14v24.51c-0.02 13.69 2.78 13.63 12.31 14.3v3.37h-35.6V403.96z"/>
  <path d="M415.54 412.37l-0.01-4.16c3.48-0.24 7.84-0.5 7.75-12.25v-56.1c0-8.65-5.43-9.09-13.56-11.18 0 0 24.48-12.92 33.15-17.1v28.57c3.34-9.37 11.28-27.26 23.44-27.4 6.59-0.07 11.44 5.06 11.44 11.93 0 4.32-1.5 11.52-10.32 11.52 -6.8 0-6.37-5.61-12.14-5.61 -4.87 0-11.97 15.19-11.97 21.73v43.64c0 11.06 3.41 12.21 16.71 13.04v3.37H415.54z"/>
  <path d="M167.18 412.37v-3.4c6.8-0.43 14.86-3.1 22.47-18.1l44.66-112.72 -5.62-10.48c8.38-4.15 16.34-9.2 21.55-15.04l56.04 134.68c4.63 11.83 8.41 17.63 11.83 16.67v8.38h-54.52v-3.4c7.18 0 21.51-0.98 19.48-11.55 -1.38-7.2-12.78-34.18-17.94-45.83h-55.03c-2.22 6.19-7.74 18.73-11.29 28.43 -2.77 7.58-3.36 12.12-3.36 12.12 -1.53 8.16 2.04 16.88 18.87 16.83v3.4H167.18zM211.78 347.5l51.65 0.05 -20.58-48.2 -5.38-15.45L211.78 347.5z"/>
  <path d="M163.66 134h66.93v3.45c-16.82-0.01-23.51 6.42-22.88 18.53v90.56c-0.63 15.92 5.2 40 42.43 40 35.05 0.01 46.21-26.66 45.96-52.3v-78.26c-0.21-15.47-6.8-17.63-22.27-18.53v-3.45h49.7v3.45c-14.82 1.05-21.9 3.34-22.21 18.53v78.26c0.63 31.17-11.25 57.01-58.13 57.01 -45.52 0-60.12-20.91-60.01-50.77v-84.5c0.24-15.35-3.77-18.59-19.51-18.53V134z"/>
  <circle cx="237.37" cy="284.86" r="2.12"/>
  <path d="M237.37 284.86"/>
</svg>
