<?xml version="1.0" encoding="utf-8"?>
<!-- Generator: Adobe Illustrator 16.0.0, SVG Export Plug-In . SVG Version: 6.00 Build 0)  -->
<!DOCTYPE svg PUBLIC "-//W3C//DTD SVG 1.1//EN" "http://www.w3.org/Graphics/SVG/1.1/DTD/svg11.dtd">
<svg version="1.1" id="Layer_1" xmlns="http://www.w3.org/2000/svg" xmlns:xlink="http://www.w3.org/1999/xlink" x="0px" y="0px"
	 width="947.861px" height="414.804px" viewBox="0 0 947.861 414.804" enable-background="new 0 0 947.861 414.804"
	 xml:space="preserve">
<g>
	<g>
		<path d="M475.213,319.444"/>
	</g>
	<path d="M441.863,194.205h55.605v3.424c-7.77,0-15.777,0.514-15.777,6.723c0,1.331,0.264,4.495,1.991,8.718l21.444,54.822
		l22.196-53.357c0.856-4.457,1.315-5.528,0.628-8.554c-1.497-6.589-8.621-8.368-16.239-8.352v-3.424h41.932v3.424
		c-9.846,0.474-15.096,6.361-19.523,13.428l-35.552,81.377h-3.771l-32.374-81.155c-4.113-8.348-4.513-12.733-20.561-13.65V194.205z"
		/>
	<path d="M620.009,289.997v-3.373c10.796-0.665,13.678-1.505,13.678-13.037v-56.1c0-8.648-5.432-9.092-13.561-11.181
		c0,0,24.482-12.918,33.153-17.096v28.565c3.339-9.371,11.277-27.264,23.436-27.403c6.588-0.077,11.436,5.057,11.436,11.93
		c0,4.319-1.494,11.525-10.313,11.525c-6.805,0-6.375-5.607-12.139-5.607c-4.873,0-11.975,15.186-11.975,21.729v43.639
		c0,11.059,3.405,12.213,16.711,13.037v3.373H620.009z"/>
	<path d="M820.59,173.725v20.48h32.818l-5.322,9.826H820.59v59.801c0,11.086,4.679,17.937,16.874,17.937
		c5.77,0,12.148-5.123,16.386-8.4l2.262,2.155c-1.482,1.732-3.476,4.143-4.92,5.381c-7.067,6.067-15.745,11.53-25.059,11.53
		c-15.966,0-23.267-12.031-24.192-26.384v-62.02h-14.993L820.59,173.725z"/>
	<path d="M835.744,194.205h47.697v3.424c-14.06-0.488-17.682,1.715-14.204,9.308c1.343,2.932,28.998,64.088,28.998,64.088
		l22.306-56.473c4.226-11.638,4.121-16.939-16.035-16.923v-3.424h43.355v3.424c-16.376-0.436-19.3,5.872-22.626,15.628
		c0,0-37.217,94.125-39.48,100.396c-2.862,7.921-9.297,13.427-21.013,12.915c-6.541-0.287-12.443-6.731-12.443-11.389
		c0-5.321,3.899-10.301,9.554-10.17c4.883,0.117,6.29,2.001,8.093,4.377c1.588,2.092,1.523,3.326,1.712,5.863
		c0.357,4.746,6.504,6.973,10.128-2.229c4.868-12.356,7.216-18.146,7.216-18.146l-41.232-86.317
		C845.586,204.117,835.744,194.205,835.744,194.205z"/>
	<path d="M541.555,162.183v3.396h-72.677v-3.396c22.51-1.058,23.225-12.29,23.205-14.938V14.714h-20.4
		c-16.569,1.318-18.587,3.296-25.515,9.05c-8.438,7.01-14.221,15.763-19.449,28.062l-3.158-0.45l7.98-42.241
		c33.285,1.145,38.473,1.028,46.334,0.922h58.955c2.439,0,27.984,0.131,42.948-1.154L545.65,14.36l-27.812-0.04v132.925
		C518.022,149.942,519.185,161.004,541.555,162.183z"/>
	<path d="M581.457,8.903v79.438c4.55-8.871,16.061-22.883,29.808-22.883c10.201,0,19.84,4.132,24.939,13.001
		c4.656,7.761,5.438,15.604,5.438,24.252v44.569c0,11.532,5.403,14.366,15.159,15.032v3.268h-47.171v-3.268
		c9.093-0.666,13.235-3.291,13.235-15.032v-44.569c0-7.096,0.191-10.36-2.895-16.222c-2.705-5.138-9.346-8.175-17.539-8.002
		c-12.873,0.271-20.976,13.182-20.976,18.432c0,5.045,0,50.362,0,50.362c0,11.532,2.465,14.366,11.776,15.032v3.268H545.62v-3.268
		c9.979-0.666,16.639-3.5,16.639-15.032V24.416c0-6.875-9.479-10.721-35.193-10.056L581.457,8.903z"/>
	<g>
		<path d="M665.41,100.556c-0.641,3.425-0.958,7.654-0.596,11.852c1.896,21.819,15.025,38.625,36.212,39.295
			c13.794,0.437,27.188-8.595,32.51-21.899l2.674,0.478c-6.317,21.679-17.537,37.335-42.639,36.896
			c-28.312-0.493-45.249-20.557-46.192-50.334c-0.934-29.396,18.126-51.124,45.555-51.124c21.074,0,38.103,11.875,43.001,34.836
			H665.41z M711.322,96.233c-0.976-14.273-7.132-27.588-20.519-27.588c-13.836,0-20.65,13.828-24.535,28.071L711.322,96.233z"/>
	</g>
	<path d="M103.214,383.222v-3.165c11.53-0.665,14.357-6.211,14.36-19.545l0.017-64.803h-14.734l1.819-7.898h12.908
		c0,0,0.146-15.73,0.621-24.55c0.494-9.241,4.756-38.704,35.084-39.131c8.417-0.119,16.043,6.126,16.033,12.312
		c-0.01,6.108-3.033,8.365-8.264,8.33c-7.852-0.057-11.657-9.597-12.173-13.275c-0.34-2.438-1.261-3.45-2.671-3.331
		c-9.309,0.814-8.485,19.791-8.497,26.049l0.01,33.596l18.816-0.015l-1.77,7.955l-17.07-0.042l0.067,64.803
		c-0.04,11.547,1.517,18.88,15.487,19.545v3.165H103.214z"/>
	<path d="M683.208,259.771l2.949-0.153c4.192,13.342,12.63,29.045,30.323,28.839c13.504-0.159,19.312-9.671,18.994-16.892
		c-0.601-13.785-15.692-18.094-26.173-23.977c-13.037-7.236-24.758-14.554-24.758-30.389c0-16.961,16.378-26.187,31.977-26.187
		c10.478,0,20.722,2.359,30.502,5.753l1.261,23.974l-3.882,0.159c-2.798-13.572-13.211-25.588-28.812-25.588
		c-9.777,0-15.854,5.578-15.854,14.852c0,19.451,53.436,18.719,53.436,51.741c0,20.583-19.654,30.534-38.746,30.534
		c-10.475,0-20.804-2.14-30.273-7.343L683.208,259.771z"/>
	<path d="M748.732,206.044c0,0,25.026-12.088,35.006-16.647v84.19c0.523,11.532,4.14,12.319,15.134,12.985v3.425h-48.978v-3.373
		c10.843-0.745,14.435-1.611,15.065-13.037v-54.897c0-5.862-0.209-8.449-5.565-9.956L748.732,206.044z"/>
	<g>
		<g>
			<path d="M521.215,312.39c32.401,0.214,53.493,23.135,53.532,51.786c0.04,28.694-19.933,50.688-52.579,50.628
				c-33.144-0.055-52.101-23.576-52.297-52.222C469.683,335.284,490.546,312.189,521.215,312.39z M522.379,410.52
				c22.586,0.159,30.273-23.249,30.157-41.072c-0.127-19.173-3.2-52.579-30.54-52.766c-23.298-0.161-29.993,30.019-29.879,46.94
				C492.231,380.99,499.083,410.36,522.379,410.52z"/>
		</g>
	</g>
	<path d="M567.194,412.366v-3.371c9.979-0.665,14.556-1.027,14.541-13.037v-54.992c-0.09-10.693-6.042-10.49-13.805-12.709
		c0,0,23.885-11.989,33.422-16.642v23.155c8.303-10.262,19.021-23.155,32.992-23.155c15.966,0,29.539,17.679,29.539,35.571v48.771
		c0.024,11.485,4.753,12.055,14.156,13.142v3.267h-47.055v-3.371c9.977-0.665,12.869-2.233,12.861-13.245v-42.484
		c0.166-13.963-5.715-28.663-20.179-28.742c-9.698-0.055-21.37,13.25-21.685,23.766v47.669
		c-0.021,11.382,4.771,12.372,14.305,13.037v3.371H567.194z"/>
	<g>
		<circle cx="773.677" cy="153.665" r="12.591"/>
	</g>
	<g>
		<path d="M553.695,226.548c-0.638,3.428-0.956,7.655-0.594,11.855c1.895,21.816,15.023,38.624,36.209,39.292
			c13.797,0.439,27.188-8.597,32.513-21.896l2.674,0.477c-6.319,21.676-17.54,37.334-42.641,36.896
			c-28.312-0.496-45.247-20.558-46.192-50.335c-0.934-29.396,18.128-51.124,45.558-51.124c21.071,0,38.103,11.875,42.998,34.835
			H553.695z M599.607,222.229c-0.976-14.275-7.129-27.59-20.519-27.59c-13.836,0-20.647,13.829-24.535,28.072L599.607,222.229z"/>
	</g>
	<g>
		<circle cx="430.135" cy="153.665" r="12.591"/>
	</g>
	<g>
		<g>
			<path d="M57.718,282.414c32.401,0.213,53.493,23.135,53.533,51.785c0.04,28.695-19.93,50.688-52.58,50.634
				c-33.146-0.062-52.101-23.579-52.297-52.228C6.187,305.308,27.05,282.213,57.718,282.414z M58.883,380.549
				c22.586,0.153,30.273-23.254,30.157-41.074c-0.129-19.176-3.202-52.58-30.542-52.769c-23.296-0.161-29.991,30.021-29.879,46.939
				C28.735,351.015,35.584,380.385,58.883,380.549z"/>
		</g>
	</g>
	<g>
		<path d="M237.371,285.021"/>
	</g>
	<path d="M405.19,206.044c0,0,25.029-12.088,35.007-16.647v84.19c0.524,11.532,4.141,12.319,15.135,12.985v3.425h-44.781v-3.949
		c5.414-0.293,10.237-1.035,10.865-12.461v-54.897c0-5.862-0.208-8.449-5.565-9.956L405.19,206.044z"/>
	<path d="M304.814,289.997v-3.373c9.979-0.665,14.556-1.027,14.541-13.037v-54.99c-0.089-10.694-6.047-10.492-13.804-12.71
		c0,0,23.884-11.99,33.419-16.642v23.151c8.306-10.256,19.024-23.151,32.994-23.151c15.964,0,29.539,17.679,29.539,35.57v48.771
		c0.025,11.488,5.483,12.377,11.635,12.461v3.949h-44.535v-3.373c9.979-0.665,12.871-2.234,12.861-13.245v-42.484
		c0.166-13.963-5.712-28.663-20.179-28.741c-9.698-0.056-21.367,13.249-21.683,23.764v47.67
		c-0.022,11.379,4.771,12.372,14.306,13.037v3.373H304.814z"/>
	<path d="M316.258,403.956c1.328,0.129,3.113,1.127,3.095-8.417V293.522c10.937-0.053,9.256-0.053,20.193-0.032v71.388l29.738-28.69
		c2.792-3.185,6.384-6.392,5.685-10.281c-0.899-4.978-11.801-4.645-15.127-4.645v-3.426h49.67v3.426
		c-22.668,0.68-37.959,19.823-46.476,26.888l31.883,44.086c6.729,9.238,11.545,15.787,21.762,15.973l0.052,4.158h-51.065v-3.371
		c3.326,0,11.096,0.417,11.096-5.875c0-2.981-2.676-6.188-5.312-9.436l-23.192-31.632l-8.713,8.14v24.505
		c-0.017,13.692,2.778,13.633,12.312,14.298v3.371h-35.601V403.956z"/>
	<path d="M415.544,412.366l-0.013-4.158c3.478-0.24,7.837-0.504,7.748-12.25v-56.099c0-8.648-5.431-9.091-13.561-11.181
		c0,0,24.483-12.92,33.153-17.098v28.565c3.339-9.373,11.277-27.265,23.436-27.404c6.588-0.074,11.438,5.057,11.438,11.933
		c0,4.316-1.497,11.522-10.316,11.522c-6.804,0-6.375-5.607-12.139-5.607c-4.873,0-11.975,15.187-11.975,21.725v43.644
		c0,11.059,3.406,12.213,16.711,13.037v3.371H415.544z"/>
	<path d="M167.177,412.366v-3.396c6.804-0.432,14.859-3.101,22.465-18.096l44.656-112.721l-5.625-10.482
		c8.38-4.153,16.336-9.202,21.551-15.038l56.042,134.677c4.634,11.825,8.412,17.629,11.833,16.673v8.383h-54.523v-3.396
		c7.182,0,21.514-0.983,19.483-11.548c-1.382-7.198-12.778-34.181-17.942-45.828h-55.029c-2.222,6.187-7.74,18.729-11.294,28.428
		c-2.775,7.578-3.364,12.118-3.364,12.118c-1.526,8.164,2.043,16.88,18.873,16.83v3.396H167.177z M211.776,347.497l51.653,0.052
		l-20.583-48.198l-5.376-15.447L211.776,347.497z"/>
	<path d="M163.662,133.997h66.93v3.451c-16.817-0.014-23.515,6.418-22.884,18.528v90.56c-0.63,15.921,5.201,39.999,42.427,39.999
		c35.05,0.005,46.21-26.662,45.959-52.302v-78.257c-0.208-15.475-6.799-17.631-22.273-18.528v-3.451h49.7v3.451
		c-14.824,1.05-21.896,3.343-22.211,18.528v78.257c0.63,31.173-11.255,57.014-58.128,57.014c-45.522,0-60.121-20.911-60.014-50.768
		v-84.503c0.236-15.353-3.773-18.59-19.506-18.528V133.997z"/>
	<g>
		<circle cx="237.371" cy="284.862" r="2.116"/>
		<path d="M237.371,284.864"/>
	</g>
</g>
</svg>
